<?xml version="1.0" encoding="UTF-8"?>
<svg id="Layer_2" data-name="Layer 2" xmlns="http://www.w3.org/2000/svg" viewBox="0 0 599.52 117.54">
  <defs>
    <style>
      .cls-1 {
        fill: #b4b7c9;
        stroke-width: 0px;
      }
    </style>
  </defs>
  <g id="Layer_1-2" data-name="Layer 1">
    <g>
      <path class="cls-1" d="m113.04,0v10.03c-2.54.4-4.94.7-7.32,1.17-19.13,3.75-35.13,19.28-38.98,38.15-3.13,15.34.82,28.99,11.02,40.77,8.19,9.46,18.66,15.04,31.07,16.94,1.33.2,2.67.37,4.07.56v9.94c-6.46-.34-12.67-1.57-18.58-3.98-19.42-7.91-32.38-21.73-37.15-42.24-4.33-18.65.33-35.47,12.71-50.02C79.51,10,91.91,3.35,106.54.83c1.61-.28,3.25-.36,4.87-.55.39-.05.77-.18,1.15-.27.16,0,.32,0,.48,0Z"/>
      <path class="cls-1" d="m0,.24c3.08-.02,6.15-.03,9.23-.06.71,0,1.04.27.99.99-.02.28,0,.56,0,.84,0,37.89,0,75.77,0,113.66q0,1.8-1.82,1.81c-2.8,0-5.6,0-8.39,0V.24Z"/>
      <path class="cls-1" d="m599.52,52.15c-1.67.03-3.4-.22-5,.13-4.86,1.07-7.29,4.61-8.41,9.14-.42,1.68-.54,3.47-.56,5.21-.06,7.25-.02,14.51-.02,21.77v1.45h-8.13v-44.35h6.96v8.54c.15,0,.3.02.45.03.27-.6.53-1.22.82-1.81,2.27-4.51,5.71-7.42,10.92-7.84.98-.08,1.99.05,2.98.08v7.66Z"/>
      <path class="cls-1" d="m66.69,117.37c-.5.05-.72.1-.94.1-4.68,0-9.36.02-14.04-.03-.53,0-1.18-.28-1.56-.65-12.45-11.76-20.58-25.93-23.96-42.76-1.32-6.57-1.76-13.2-1.34-19.85,1.15-18.23,7.88-34.21,20-47.91,1.66-1.88,3.47-3.63,5.27-5.4.36-.35.95-.67,1.44-.67,4.8-.05,9.6-.03,14.4-.02.15,0,.3.06.68.14-20.23,14.4-31.77,33.54-31.79,58.44-.02,24.94,11.5,44.09,31.85,58.6Z"/>
      <path class="cls-1" d="m407.05,29.63c-.68,2.27-1.3,4.35-1.95,6.52-4.73-2.12-9.59-2.68-14.6-2.48-11.22.46-19.75,7.87-21.61,18.94-1.11,6.57-.89,13.06,1.99,19.19,3.3,7.04,9.09,10.83,16.68,11.92,6.04.87,11.95.21,17.75-2.16.51,1.96,1.04,3.87,1.46,5.8.05.23-.39.77-.69.85-2.65.73-5.28,1.59-7.99,2.02-6.02.95-12.05.92-17.93-.89-11.02-3.4-17.41-10.99-19.61-22.13-1.42-7.22-1.04-14.4,1.74-21.27,4.19-10.34,12.04-16.34,22.93-18.39,6.58-1.24,13.13-.89,19.54,1.16.75.24,1.47.58,2.3.91Z"/>
      <path class="cls-1" d="m449.19,69.09h-31.18c-.05,3.68.74,7.01,2.89,9.94,2.62,3.56,6.34,5.15,10.63,5.44,5.07.34,7.29-.06,14.09-2.12.41,1.74.87,3.46,1.2,5.2.05.25-.47.8-.81.89-2.93.75-5.85,1.63-8.83,2.07-3.93.58-7.89.51-11.78-.53-6.9-1.84-11.64-6.09-13.81-12.86-2.54-7.92-1.9-15.7,2.25-22.97,5.35-9.36,15.88-11.43,23.99-8.66,5,1.71,8.08,5.39,9.97,10.17,1.55,3.93,1.98,8.02,1.66,12.21-.02.24-.06.47-.11.71-.03.15-.09.3-.16.53Zm-31.18-5.84h23.79c-.15-1.35-.2-2.61-.43-3.84-1.5-7.87-9.42-11.75-16.3-7.9-4.5,2.52-6.21,6.81-7.05,11.75Z"/>
      <path class="cls-1" d="m569.42,69.12h-31.25c-.19,8.04,4.3,13.91,11.67,15.1,5.02.8,9.96.25,14.74-1.5.33-.12.66-.26,1.14-.44.47,1.93.92,3.8,1.39,5.74-2.54,1.19-5.15,1.85-7.83,2.26-4.49.67-8.99.9-13.46-.21-8.3-2.06-13.93-8.32-15.14-16.91-.9-6.38-.25-12.56,2.86-18.33,5.81-10.78,17.8-12.23,25.55-8.89,3.61,1.55,6.18,4.23,7.9,7.68,2.42,4.84,3.16,9.97,2.41,15.51Zm-31.36-5.88h23.88c-.11-1.13-.17-2.15-.31-3.17-1.02-7.16-6.69-11.17-13.68-9.6-4.53,1.02-7.1,4.22-8.66,8.34-.53,1.39-.8,2.87-1.23,4.43Z"/>
      <path class="cls-1" d="m195.9,69.09c-.03,8.63,4.85,14.76,13.55,15.38,4.79.34,9.48-.24,14.05-2.2.47,1.95.92,3.79,1.44,5.96-2.2.61-4.34,1.36-6.53,1.79-4.9.96-9.84,1.25-14.75.06-8.34-2.02-14.01-8.36-15.21-16.98-.86-6.17-.26-12.16,2.62-17.8,5.26-10.29,16.16-12.67,24.63-9.84,2.92.98,5.35,2.72,7.17,5.18,4.08,5.48,5.08,11.7,4.35,18.44h-31.33Zm23.8-5.83c-.12-1.19-.17-2.25-.34-3.31-1.15-7.44-7.56-11.52-14.59-9.23-4.24,1.38-6.55,4.65-7.94,8.65-.42,1.22-.64,2.5-.98,3.89h23.85Z"/>
      <path class="cls-1" d="m310.09,69.12h-31.21c-.86,4.38,2.15,10.61,6.31,13.16,2.19,1.34,4.59,2.06,7.14,2.2,4.68.26,9.26-.22,13.63-2.05.1-.04.23-.03.42-.06.42,1.7.87,3.39,1.2,5.1.05.27-.41.85-.73.93-2.93.76-5.85,1.64-8.83,2.09-3.97.6-7.97.53-11.9-.52-6.85-1.84-11.56-6.06-13.75-12.78-2.46-7.57-1.95-15.05,1.72-22.15,4.96-9.6,15.09-12.29,23.75-9.82,3.47.99,6.26,3.01,8.31,5.96,3.73,5.38,4.64,11.4,3.94,17.93Zm-31.15-5.87h23.6c-.13-1.28-.16-2.47-.39-3.63-.81-3.99-2.65-7.27-6.73-8.76-7.92-2.9-16.91,3.81-16.49,12.39Z"/>
      <path class="cls-1" d="m465.45,89.84h-8.2v-44.34h6.88c.16,2.33.33,4.66.52,7.34.38-.57.6-.9.82-1.23,5.63-8.56,18.75-9.78,25.42-2.35,2.58,2.87,3.76,6.35,4.18,10.11.19,1.7.24,3.42.25,5.13.02,7.97.01,15.95.01,23.92v1.4h-8.11c0-.43,0-.89,0-1.35,0-8.05.04-16.11-.03-24.16-.02-1.89-.22-3.84-.69-5.67-1.67-6.46-7.86-9.39-13.98-6.62-4.2,1.9-6.69,5.26-6.93,9.84-.27,5.13-.12,10.28-.13,15.42-.01,3.67,0,7.34,0,11,0,.47,0,.95,0,1.56Z"/>
      <path class="cls-1" d="m507.69,45.43c0-3.37.03-6.47-.02-9.57-.01-.87.24-1.24,1.12-1.44,2.24-.52,4.45-1.16,6.87-1.81v12.75h11.49v6.15h-11.49v1.42c0,7.37-.02,14.74.01,22.11,0,1.39.08,2.79.31,4.16.58,3.43,2.59,5.07,6.06,4.99,1.43-.03,2.85-.26,4.39-.41.11,1.84.25,3.66.3,5.47,0,.22-.37.6-.64.67-3.84,1.05-7.72,1.42-11.54-.01-3.97-1.49-5.84-4.67-6.42-8.66-.3-2.04-.42-4.12-.43-6.19-.05-7.33-.02-14.66-.02-22v-1.54h-6.78v-6.11h6.78Z"/>
      <path class="cls-1" d="m187.19,89.94c-3.34,0-6.44.02-9.55-.03-.32,0-.73-.3-.93-.59-6.16-8.83-12.35-17.64-18.42-26.54-2.8-4.11-2.66-6.07.35-10.05,5.96-7.9,11.96-15.76,17.96-23.63.24-.32.65-.72.99-.72,3.11-.06,6.22-.03,9.6-.03-.4.56-.65.93-.92,1.29-5.87,7.72-11.74,15.43-17.6,23.16-.82,1.08-1.54,2.23-2.33,3.33-.77,1.09-.86,2.17-.09,3.32.71,1.06,1.32,2.19,2.04,3.23,6.04,8.72,12.1,17.43,18.15,26.14.2.29.4.59.75,1.12Z"/>
      <path class="cls-1" d="m149.2,89.84h-7.97V28.1h7.97v61.74Z"/>
      <path class="cls-1" d="m243.27,89.84h-7.97V28.1h7.97v61.74Z"/>
      <path class="cls-1" d="m262.73,89.84h-7.96V28.1h7.96v61.74Z"/>
      <path class="cls-1" d="m326.13,89.85h-8.08v-44.37h6.93v8.49c.15.03.29.06.44.09.17-.36.34-.71.5-1.08,1.85-4.21,4.76-7.26,9.39-8.29,1.3-.29,2.69-.18,4.04-.17.26,0,.73.42.74.65.06,2.3.03,4.6.03,6.81-1.78.09-3.45-.06-5.01.3-4.96,1.14-7.35,4.77-8.44,9.4-.37,1.57-.5,3.23-.52,4.85-.05,7.29-.02,14.59-.02,21.88,0,.43,0,.87,0,1.43Z"/>
    </g>
  </g>
</svg>