<?xml version="1.0" standalone="no"?>
<!DOCTYPE svg PUBLIC "-//W3C//DTD SVG 20010904//EN"
 "http://www.w3.org/TR/2001/REC-SVG-20010904/DTD/svg10.dtd">
<svg version="1.0" xmlns="http://www.w3.org/2000/svg"
 width="792.000000pt" height="792.000000pt" viewBox="0 0 792.000000 792.000000"
 preserveAspectRatio="xMidYMid meet">
<metadata>
Created by potrace 1.14, written by Peter Selinger 2001-2017
</metadata>
<g transform="translate(0.000000,792.000000) scale(0.100000,-0.100000)"
fill="#000000" stroke="none">
<path d="M1449 7916 c-2 -2 -29 -7 -59 -10 -106 -12 -165 -27 -325 -81 -309
-104 -591 -320 -784 -600 -121 -175 -202 -370 -253 -605 l-23 -105 -2 -2510
c-1 -1481 2 -2539 8 -2580 20 -153 32 -210 68 -322 61 -185 157 -360 285 -518
51 -63 184 -195 233 -232 21 -15 44 -33 51 -40 26 -25 200 -128 277 -164 74
-34 278 -103 335 -113 14 -2 36 -7 50 -10 14 -3 41 -9 60 -13 54 -11 5074 -14
5145 -2 226 36 393 89 550 174 437 235 722 620 827 1115 l23 105 2 2515 c2
2652 3 2584 -41 2772 -30 126 -54 191 -128 346 -212 438 -663 775 -1148 858
-25 4 -54 10 -65 12 -24 6 -5080 14 -5086 8z"/>
</g>
</svg>
